<?xml version="1.0" encoding="utf-8"?>
<!-- Generator: Adobe Illustrator 16.0.0, SVG Export Plug-In . SVG Version: 6.00 Build 0)  -->
<!DOCTYPE svg PUBLIC "-//W3C//DTD SVG 1.1//EN" "http://www.w3.org/Graphics/SVG/1.1/DTD/svg11.dtd">
<svg version="1.1" id="Capa_1" xmlns="http://www.w3.org/2000/svg" xmlns:xlink="http://www.w3.org/1999/xlink" x="0px" y="0px"
	 width="512px" height="512px" viewBox="0 0 512 512" enable-background="new 0 0 512 512" xml:space="preserve">
<g display="none">
	<path display="inline" fill-rule="evenodd" clip-rule="evenodd" d="M498.741,337.129c-1.595,5.538-3.397,11.03-4.672,16.641
		c-0.46,2.028-1.439,2.25-2.942,2.367c-0.632,0.05-1.271,0.014-1.905,0.014c-63.013-0.008-126.026-0.015-189.039-0.023
		c-4.765-0.002-4.752-0.006-4.77-4.78c-0.037-10.167-0.105-20.333-0.107-30.499c0-1.138,0.354-2.275,0.617-3.851
		c3.188,2.985,5.691,5.678,8.536,7.938c38.783,30.819,96.899,11.434,109.4-36.448c10.164-38.932-15.123-78.428-54.664-85.317
		c-2.071-0.361-4.216-0.437-6.325-0.429c-17.368,0.071-34.736,0.128-52.102,0.362c-2.913,0.04-3.565-0.999-3.557-3.669
		c0.077-23.511,0.044-47.021,0.044-70.532c0-0.53,0.002-1.059,0-1.589c-0.023-5.56,0.41-5.746,6.059-4.74
		c14.34,2.555,22.293,12.051,27.001,24.874c1.878,5.115,3.27,10.474,4.224,15.839c0.521,2.938,1.81,3.013,4.024,2.755
		c9.886-1.15,19.598-0.211,29.144,2.559c15.363,4.46,25.795,14.407,31.865,29.006c1.155,2.777,2.16,4.29,5.662,4.405
		c10.593,0.349,21.001,2.165,30.848,6.312c18.927,7.969,29.528,22.61,33.365,42.416c2.559,13.211,2.201,26.498,0.16,39.751
		c-0.336,2.179,0.227,3.303,2.39,4.274c10.372,4.663,19.237,11.127,23.91,21.984c1.229,2.857,1.904,5.954,2.834,8.941
		C498.741,329.504,498.741,333.316,498.741,337.129z M298.707,352.947c1.475,0,2.626,0,3.777,0
		c59.939,0.027,119.879,0.056,179.818,0.082c9.209,0.004,9.367,0.041,11.693-9.075c3.668-14.371,2.274-27.757-9.821-37.862
		c-4.699-3.928-10.485-6.596-15.912-9.591c-1.901-1.049-3.4-1.704-1.984-4.16c0.348-0.603,0.313-1.438,0.41-2.171
		c1.615-12.096,2.286-24.198,0.235-36.319c-2.83-16.726-10.154-30.61-25.321-39.338c-11.828-6.806-24.851-9.184-38.303-9.465
		c-3.098-0.064-4.604-0.988-5.705-4.028c-4.675-12.916-13.013-22.585-25.987-27.839c-11.479-4.648-23.433-5.128-35.543-3.923
		c-2.402,0.239-3.546-0.066-4.076-2.825c-1.107-5.779-2.447-11.556-4.273-17.144c-2.433-7.438-6.33-14.089-12.883-18.766
		c-4.337-3.096-9.114-4.977-14.583-4.911c0,24.98,0,49.605,0,74.432c1.106,0.068,2.034,0.181,2.962,0.174
		c16.943-0.116,33.886-0.293,50.83-0.326c2.719-0.005,5.487,0.403,8.15,0.994c37.342,8.285,61.086,42.386,55.975,80.298
		c-6.226,46.168-55.862,74.3-98.709,55.942c-7.493-3.21-14.396-7.379-20.75-13.211C298.707,333.812,298.707,343.178,298.707,352.947
		z"/>
	<path display="inline" fill-rule="evenodd" clip-rule="evenodd" d="M14.53,333.952c1.014-5.261,1.792-10.579,3.086-15.77
		c3.791-15.215,11.852-28.091,22.152-39.718c1.037-1.172,1.833-2.792,2.149-4.325c1.357-6.573,3.246-12.924,7.307-18.376
		c6.425-8.625,15.414-11.709,25.801-11.616c0.843,0.008,1.687,0.001,2.869,0.001c1.099-3.585,2.179-7.284,3.365-10.948
		c6.089-18.812,15.338-35.673,30.46-48.839c13.195-11.486,28.726-17.902,45.844-20.691c4.366-0.711,8.817-0.895,13.186-1.59
		c1.029-0.164,2.209-1.238,2.763-2.21c2.18-3.829,3.635-8.17,6.279-11.615c6.386-8.319,15.513-10.55,25.486-9.698
		c8.217,0.703,8.2,0.899,8.2,9.225c0,16.73,0.001,33.46,0,50.19c0,5.07-0.001,5.085-4.907,5.064
		c-15.248-0.064-30.503,0.15-45.74-0.283c-21.328-0.606-38.69,7.722-52.108,23.637c-16.933,20.083-21.313,43.257-12.303,68.003
		c9.052,24.86,27.371,39.876,53.38,44.412c21.153,3.689,40.234-1.928,56.567-16.09c1.787-1.549,3.152-3.585,5.344-6.128
		c0.42,1.926,0.883,3.044,0.874,4.159c-0.092,10.479-0.273,20.958-0.41,31.438c-0.05,3.889-0.065,3.938-4.243,3.939
		c-37.271,0.009-74.543,0.014-111.815,0.019c-25.73,0.004-51.46,0.005-77.19,0.006c-5.241,0-5.49-0.259-5.811-5.471
		c-0.057-0.924-0.383-1.832-0.584-2.747C14.53,343.271,14.53,338.611,14.53,333.952z M210.492,200.22
		c0.087-1.155,0.188-1.875,0.188-2.596c0.009-17.472,0.037-34.945-0.064-52.417c-0.006-1.052-0.882-2.872-1.624-3.024
		c-6.323-1.305-12.598-1.054-18.621,1.582c-7.959,3.483-11.753,10.281-14.133,18.09c-0.658,2.161-1.736,2.943-3.978,3.21
		c-7.113,0.846-14.287,1.556-21.262,3.108c-20.225,4.5-36.847,14.908-49.437,31.492c-9.993,13.165-16.096,28.157-20.154,44.022
		c-0.761,2.975-2.133,3.616-4.849,3.499c-6.207-0.267-12.225,0.594-17.686,3.87c-7.749,4.647-11.25,12.088-13.159,20.443
		c-0.874,3.825-1.818,7.252-4.671,10.392c-10.311,11.342-17.64,24.42-21.179,39.465c-2.442,10.385-2.85,20.843-1.431,31.38
		c64.347,0,128.437,0,192.478,0c0-9.5,0-18.701,0-28.108c-15.986,13.241-33.798,19.457-54.292,17.741
		c-34.347-2.874-62.689-30.71-65.023-65.295c-2.008-29.754,10.267-52.756,35.83-68.3c8.383-5.097,17.608-8.691,27.48-8.86
		c17.358-0.297,34.729,0.164,52.095,0.306C208.046,200.228,209.091,200.22,210.492,200.22z"/>
	<path display="inline" fill-rule="evenodd" clip-rule="evenodd" d="M222.866,363.678c0-1.693,0-2.933,0-4.174
		c0.005-53.994,0.01-107.988,0.016-161.982c0-4.822,0.006-4.817,4.716-4.843c5.082-0.028,10.165-0.003,15.244-0.131
		c2.272-0.058,3.26,0.653,3.134,3.09c-0.18,3.457-0.046,6.93-0.046,10.491c6.161,0,11.74,0,17.76,0c0-1.237-0.003-2.357,0-3.478
		c0.022-8.682,0.107-17.364,0.032-26.044c-0.025-2.89,0.854-4.297,4.008-4.178c5.18,0.197,10.373,0.169,15.559,0.083
		c2.369-0.039,3.261,1.026,3.201,3.229c-0.023,0.847-0.003,1.694-0.003,2.541c0,60.346,0,120.693,0,181.039c0,1.343,0,2.687,0,4.358
		c1.595,0,2.839-0.003,4.084,0.001c13.34,0.034,26.679,0.097,40.02,0.09c3.743-0.001,6.996,0.854,8.591,4.612
		c1.709,4.026,0.679,9.406-2.11,12.073c-24.479,23.405-48.958,46.809-73.432,70.218c-5.76,5.51-12.138,5.666-17.952,0.163
		c-11.22-10.622-22.342-21.348-33.509-32.025c-13.082-12.509-26.16-25.021-39.257-37.513c-3.275-3.124-4.515-8.473-2.888-12.74
		c1.439-3.774,4.504-4.754,8.129-4.766c13.552-0.044,27.103-0.077,40.654-0.113C220.05,363.676,221.284,363.678,222.866,363.678z
		 M267.261,175.795c0,10.214-0.046,20.056,0.029,29.896c0.021,2.743-0.775,4.021-3.824,3.905
		c-5.815-0.221-11.646-0.162-17.467-0.047c-2.511,0.05-3.407-0.924-3.315-3.368c0.126-3.338,0.032-6.685,0.032-10.174
		c-5.814,0-11.15,0-16.658,0c0,5.02,0.003,9.779,0,14.538c-0.045,50.606-0.111,101.213-0.093,151.82
		c0.001,3.159-1.063,4.188-4.25,4.19c-14.61,0.02-29.221,0.206-43.827,0.538c-1.517,0.034-3.487,1.063-4.399,2.27
		c-1.801,2.385-0.837,7.21,1.373,9.321c15.997,15.279,31.99,30.564,48,45.831c8.805,8.396,17.645,16.757,26.462,25.14
		c2.425,2.305,5.365,2.676,8.221,1.468c1.871-0.79,3.469-2.381,4.986-3.826c13.873-13.215,27.7-26.479,41.544-39.725
		c10.171-9.731,20.355-19.447,30.509-29.196c2.162-2.076,2.7-5.777,1.398-8.817c-1.152-2.692-3.508-2.563-5.896-2.584
		c-13.128-0.114-26.256-0.257-39.382-0.459c-8.289-0.127-7.386,1.138-7.393-7.567c-0.046-59.929-0.009-119.856,0.002-179.784
		c0-1.117,0-2.233,0-3.369C277.812,175.795,272.766,175.795,267.261,175.795z"/>
	<path display="inline" fill-rule="evenodd" clip-rule="evenodd" d="M208.423,271.048c0.058,26.893-21.813,48.887-48.707,48.936
		c-25.989,0.046-49.077-20.146-49.033-48.896c0.042-27.442,21.186-48.75,48.825-48.762
		C188.221,222.313,208.222,245.145,208.423,271.048z M113.547,271.005c-0.11,25.314,20.577,46.314,45.929,46.138
		c25.326-0.178,46.055-19.577,46.041-46.003c-0.016-27.245-21.755-45.673-45.11-45.88
		C134.288,225.029,113.659,245.27,113.547,271.005z"/>
	<path display="inline" fill-rule="evenodd" clip-rule="evenodd" d="M398.578,271.467c-0.463,27.895-22.502,48.971-50.711,48.494
		c-25.61-0.432-47.598-23.016-47.104-48.966c0.532-27.965,21.998-48.686,49.324-48.734
		C377.011,222.212,399.018,244.956,398.578,271.467z M349.783,225.24c-25.497-0.006-46.127,20.526-46.131,45.914
		c-0.004,25.253,20.947,46.171,46.121,46.046c25.319-0.125,46.08-20.971,46.001-46.19
		C395.697,245.79,375.053,225.246,349.783,225.24z"/>
	<path display="inline" fill-rule="evenodd" clip-rule="evenodd" d="M261.86,83.842c0-4.74,0.099-9.154-0.036-13.562
		c-0.082-2.7,0.8-3.772,3.661-3.673c5.812,0.2,11.636,0.117,17.453,0.036c2.394-0.033,3.384,0.781,3.373,3.325
		c-0.047,10.891,0.065,21.783,0.149,32.675c0.015,2.069-0.989,2.724-2.957,2.687c-4.653-0.085-9.313,0.086-13.962-0.074
		c-2.407-0.083-3.529,0.504-3.268,3.143c0.218,2.199-0.018,4.44,0.059,6.659c0.064,1.878-0.736,2.717-2.608,2.708
		c-5.925-0.03-11.848-0.016-17.772-0.026c-1.833-0.003-2.62-0.887-2.609-2.767c0.053-9.309,0.036-18.619,0.036-27.928
		c0-2.201,0.958-3.267,3.279-3.228C251.602,83.9,256.547,83.842,261.86,83.842z M246.539,114.46c5.832,0,11.361,0,17.026,0
		c0-2.93,0.213-5.594-0.056-8.208c-0.307-2.977,0.742-3.869,3.677-3.749c5.251,0.215,10.518,0.061,15.951,0.061
		c0-11.142,0-21.877,0-32.754c-6.129,0-12.088,0-18.275,0c0,4.631-0.134,9.066,0.052,13.488c0.11,2.636-0.747,3.583-3.419,3.493
		c-4.937-0.167-9.882-0.048-14.956-0.048C246.539,96.171,246.539,105.237,246.539,114.46z"/>
	<path display="inline" fill-rule="evenodd" clip-rule="evenodd" d="M245.782,154.185c4.35,0,8.252,0.084,12.149-0.032
		c2.301-0.069,3.269,0.796,3.244,3.123c-0.058,5.498-0.031,10.997,0.05,16.495c0.029,2.043-0.866,2.87-2.839,2.868
		c-10.786-0.014-21.573-0.011-32.358,0.016c-2.829,0.007-3.167-1.791-3.164-4.014c0.022-12.584,0.011-25.168,0.012-37.751
		c0-3.173,0.01-6.345,0-9.517c-0.007-2.401,0.829-3.684,3.575-3.581c4.963,0.187,9.938,0.055,14.908,0.075
		c3.876,0.016,4.413,0.536,4.419,4.356C245.792,135.403,245.782,144.585,245.782,154.185z M257.785,157.227
		c-4.117,0-8.017-0.146-11.899,0.053c-2.443,0.125-3.174-0.81-3.147-3.097c0.08-6.561,0.029-13.123,0.03-19.685
		c0-3.135,0-6.27,0-9.476c-5.756,0-11.1,0-16.599,0c0,16.197,0,32.221,0,48.39c10.613,0,21.037,0,31.615,0
		C257.785,168.024,257.785,162.874,257.785,157.227z"/>
	<path display="inline" fill-rule="evenodd" clip-rule="evenodd" d="M263.703,133.625c0-2.646,0.004-5.292-0.001-7.937
		c-0.004-1.917,0.736-2.834,2.859-2.786c5.606,0.128,11.218,0.107,16.826,0.042c1.96-0.023,3.048,0.688,3.058,2.692
		c0.029,5.503,0.158,11.012-0.087,16.504c-0.044,0.979-1.668,2.667-2.604,2.697c-5.377,0.169-10.771-0.222-16.15-0.096
		c-3.148,0.073-4.173-1.161-3.95-4.134c0.173-2.315,0.035-4.654,0.035-6.982C263.693,133.625,263.698,133.625,263.703,133.625z
		 M266.917,125.854c0,5.375,0,10.57,0,15.859c5.524,0,10.835,0,16.126,0c0-5.426,0-10.621,0-15.859
		C277.547,125.854,272.315,125.854,266.917,125.854z"/>
	<path display="inline" fill-rule="evenodd" clip-rule="evenodd" d="M234.329,54.3c2.853,0,5.709,0.072,8.56-0.025
		c2.052-0.069,2.91,0.879,2.913,2.814c0.007,5.39,0.015,10.781,0.013,16.171c0,1.901-0.841,2.948-2.869,2.919
		c-5.387-0.078-10.775-0.207-16.161-0.123c-2.683,0.042-3.861-0.859-3.783-3.663c0.138-4.964,0.071-9.935,0.032-14.902
		c-0.019-2.335,0.798-3.477,3.371-3.269c2.626,0.212,5.281,0.047,7.924,0.047C234.329,54.28,234.329,54.29,234.329,54.3z
		 M242.472,57.228c-5.504,0-10.829,0-16.231,0c0,5.366,0,10.504,0,15.786c5.512,0,10.841,0,16.231,0
		C242.472,67.644,242.472,62.505,242.472,57.228z"/>
	<path display="inline" fill-rule="evenodd" clip-rule="evenodd" d="M171.489,256.318c3.719,0,7.082,0.077,10.438-0.028
		c2.09-0.065,3.105,0.535,3.067,2.847c-0.104,6.454-0.095,12.911-0.012,19.365c0.032,2.508-1.059,3.376-3.459,3.292
		c-3.246-0.112-6.499-0.027-10.037-0.027c0,3.479-0.098,6.633,0.034,9.776c0.09,2.157-0.626,3.065-2.878,3.03
		c-6.03-0.096-12.064-0.081-18.095-0.01c-2.375,0.029-3.195-1.111-3.159-3.309c0.05-3.038,0.013-6.077,0.013-9.399
		c-3.69,0-7.053-0.083-10.41,0.028c-2.138,0.071-3.055-0.621-3.017-2.896c0.107-6.453,0.076-12.909,0.018-19.364
		c-0.021-2.276,0.891-3.289,3.212-3.225c3.265,0.091,6.534,0.023,10.299,0.023c0-3.294,0.16-6.426-0.049-9.534
		c-0.174-2.587,0.836-3.311,3.28-3.255c5.711,0.128,11.431,0.156,17.141-0.009c2.716-0.078,3.877,0.701,3.663,3.573
		C171.319,250.112,171.489,253.056,171.489,256.318z M150.501,291.265c6.243,0,12.034,0,18.22,0c0-3.368,0.045-6.622-0.017-9.873
		c-0.038-2.018,0.712-2.812,2.836-2.706c3.452,0.172,6.919,0.046,10.44,0.046c0-6.72,0-13.089,0-19.675
		c-3.53,0-6.803-0.094-10.068,0.031c-2.459,0.094-3.491-0.899-3.418-3.345c0.088-2.909,0.021-5.824,0.021-8.747
		c-6.244,0-12.008,0-18.029,0c0,3.132-0.083,6.079,0.026,9.019c0.09,2.467-0.479,3.706-3.401,3.405
		c-3.308-0.34-6.677-0.078-9.928-0.078c0,6.841,0,13.22,0,19.733c3.15,0,6-0.01,8.849,0.002c4.426,0.019,4.465,0.063,4.469,4.349
		C150.503,285.948,150.501,288.47,150.501,291.265z"/>
	<path display="inline" fill-rule="evenodd" clip-rule="evenodd" d="M336.705,266.661c-0.014,6.484-5.413,11.93-11.876,11.977
		c-6.48,0.048-12.228-5.752-12.071-12.179c0.157-6.443,5.774-11.922,12.119-11.82C331.386,254.744,336.719,260.164,336.705,266.661z
		 M324.801,257.672c-5.051-0.008-9.065,3.941-9.079,8.932c-0.015,5.003,3.99,9.01,9.019,9.024c5.08,0.015,9.03-3.895,9.059-8.963
		C333.827,261.613,329.89,257.678,324.801,257.672z"/>
	<path display="inline" fill-rule="evenodd" clip-rule="evenodd" d="M366.737,247.532c0.02,6.583-5.199,11.943-11.729,12.048
		c-6.571,0.105-12.07-5.42-12.03-12.088c0.039-6.498,5.494-11.952,11.914-11.913C361.403,235.619,366.718,240.981,366.737,247.532z
		 M363.956,247.578c-0.006-4.99-4.031-8.965-9.072-8.96c-5.022,0.005-9.159,4.063-9.144,8.967c0.016,4.929,4.169,9.017,9.145,9.001
		C359.898,256.57,363.962,252.536,363.956,247.578z"/>
	<path display="inline" fill-rule="evenodd" clip-rule="evenodd" d="M388.84,272.551c0.042,6.673-5.048,11.884-11.688,11.967
		c-6.797,0.085-12.133-5.175-12.092-11.921c0.04-6.618,5.269-11.814,11.889-11.813C383.6,260.784,388.799,265.929,388.84,272.551z
		 M367.871,272.525c-0.072,4.896,4.051,9.159,8.947,9.254c4.831,0.093,9.14-4.096,9.242-8.984c0.101-4.862-4.068-9.146-8.973-9.222
		C372.154,263.498,367.943,267.588,367.871,272.525z"/>
	<path display="inline" fill-rule="evenodd" clip-rule="evenodd" d="M346.901,303.575c-6.573,0.013-11.952-5.221-12.06-11.731
		c-0.106-6.523,5.476-12.054,12.119-12.005c6.549,0.048,11.905,5.42,11.87,11.904C358.795,298.271,353.46,303.562,346.901,303.575z
		 M355.824,291.704c0.003-5.03-3.994-9.079-8.965-9.08c-4.955-0.001-9.007,4.083-9.008,9.081c-0.002,4.975,4.099,9.134,9.004,9.133
		C351.772,300.837,355.821,296.712,355.824,291.704z"/>
</g>
<g>
	<path fill-rule="evenodd" clip-rule="evenodd" d="M226.286,195.906c5.76,0,11.04,0,16.757,0c0,3.365,0.172,6.524-0.049,9.655
		c-0.222,3.145,1.026,4.07,4.062,3.961c5.52-0.197,11.061-0.214,16.576,0.035c3.145,0.142,4.112-1.02,4.083-4.007
		c-0.086-8.715,0.016-17.431,0.043-26.147c0.003-1.155,0-2.311,0-3.702c5.35,0,10.49,0,16.063,0c0,1.341,0,2.681,0,4.02
		c0.003,61.009,0.003,122.018,0.013,183.028c0.001,4.256,0.04,4.267,4.27,4.319c14.24,0.176,28.481,0.37,42.723,0.51
		c2.398,0.023,4.878-0.133,5.838,2.669c1.073,3.132,1.196,6.269-1.447,8.814c-8.112,7.813-16.25,15.598-24.388,23.383
		c-16.047,15.352-32.079,30.72-48.186,46.009c-1.649,1.565-3.606,3.064-5.701,3.845c-3.026,1.129-5.784-0.117-8.093-2.331
		c-9.662-9.267-19.336-18.521-29.014-27.771c-14.902-14.241-29.81-28.478-44.721-42.71c-2.325-2.221-3.464-6.74-1.706-9.289
		c0.897-1.302,2.999-2.454,4.584-2.493c14.662-0.359,29.33-0.548,43.996-0.572c3.239-0.005,4.231-1.116,4.23-4.252
		c-0.024-54.204,0.032-108.409,0.069-162.614C226.288,198.901,226.286,197.537,226.286,195.906z"/>
	<path fill-rule="evenodd" clip-rule="evenodd" d="M299.301,353.488c0-9.856,0-19.254,0-29.164
		c6.61,6.129,13.863,10.418,21.736,13.665c28.102,11.589,60.512,3.764,81.165-19.568c22.708-25.653,23.713-65.347,2.32-91.811
		c-12.003-14.847-27.439-23.752-46.306-26.676c-1.246-0.193-2.539-0.122-3.811-0.114c-16.901,0.098-33.804,0.21-50.706,0.305
		c-0.926,0.005-1.853-0.117-2.932-0.189c0-24.941,0-49.665,0-74.72c5.412-0.027,10.154,1.751,14.444,4.776
		c6.796,4.792,10.777,11.657,13.281,19.345c1.632,5.008,2.706,10.213,3.802,15.378c0.98,4.626,0.834,4.542,5.47,4.147
		c9.246-0.79,18.453-0.556,27.508,1.746c16.237,4.127,27.251,14.209,33.049,29.789c1.323,3.556,3.046,4.536,6.637,4.604
		c11.09,0.211,21.926,2.109,32.144,6.628c18.595,8.225,27.919,23.249,31.09,42.74c1.998,12.286,1.669,24.603-0.616,36.731
		c-0.791,4.201,0.568,5.104,3.748,6.477c9.439,4.07,17.771,9.696,22.403,19.313c5.688,11.806,3.416,23.561-0.907,35.16
		c-0.256,0.688-1.499,1.079-2.352,1.445c-0.449,0.193-1.049,0.034-1.581,0.034c-62.081-0.014-124.163-0.027-186.245-0.041
		C301.6,353.488,300.557,353.488,299.301,353.488z"/>
	<path fill-rule="evenodd" clip-rule="evenodd" d="M211.264,324.824c0,9.792,0,19.006,0,28.463c-64.502,0-128.85,0-193.417,0
		c-1.69-12.484-0.815-24.739,2.863-36.775c4.2-13.746,11.69-25.552,21.245-36.185c1.316-1.466,2.136-3.63,2.556-5.604
		c2.015-9.465,5.117-18.219,13.984-23.571c5.47-3.302,11.53-4.155,17.763-3.831c2.802,0.145,4.075-0.666,4.827-3.573
		c4.228-16.338,10.552-31.732,21.055-45.186c12.518-16.037,28.844-26.073,48.539-30.537c7.099-1.609,14.414-2.323,21.661-3.182
		c2.294-0.272,3.308-1.163,3.95-3.286c2.07-6.85,5.3-13.001,11.709-16.817c6.638-3.952,13.867-4.232,21.243-2.911
		c0.631,0.113,1.554,1.202,1.556,1.84c0.042,18.599-0.016,37.197-0.065,55.796c0,0.081-0.117,0.162-0.5,0.658
		c-0.915,0-2.155,0.008-3.395-0.001c-17.432-0.131-34.872-0.62-52.294-0.256c-9.776,0.204-18.938,3.826-27.261,8.892
		c-25.658,15.616-37.946,38.692-35.948,68.571c2.311,34.547,30.417,62.349,64.981,65.466c20.167,1.818,37.919-3.987,53.475-16.808
		C210.107,325.725,210.433,325.478,211.264,324.824z"/>
	<path fill-rule="evenodd" clip-rule="evenodd" d="M265.258,69.129c6.259,0,12.166,0,18.269,0c0.104,0.717,0.292,1.417,0.293,2.116
		c0.021,9.346-0.044,18.692,0.058,28.036c0.023,2.205-0.618,2.976-2.879,2.904c-4.773-0.152-9.558,0.016-14.335-0.073
		c-2.024-0.039-2.861,0.578-2.734,2.742c0.18,3.041,0.045,6.1,0.045,9.33c-5.789,0-11.267,0-17.001,0c0-9.158,0-18.331,0-27.967
		c3.708,0,7.487,0.022,11.267-0.005c8.223-0.061,6.92,0.961,7.013-7.157C265.288,75.874,265.258,72.691,265.258,69.129z"/>
	<path fill-rule="evenodd" clip-rule="evenodd" d="M226.415,124.656c5.543,0,10.906,0,16.681,0c0,3.457,0,6.818,0,10.179
		c0,5.949,0,11.898,0,17.847c0,4.292,0,4.281,4.129,4.262c3.581-0.017,7.162-0.003,10.916-0.003c0,5.603,0,10.864,0,16.329
		c-10.586,0-21.06,0-31.726,0C226.415,157.007,226.415,140.925,226.415,124.656z"/>
	<path fill-rule="evenodd" clip-rule="evenodd" d="M159.322,320.387c-27.011-0.015-49.23-22.076-49.034-49.071
		c0.193-26.745,20.798-49.008,49.132-48.979c28.051,0.029,48.822,21.92,49.046,49.071
		C208.689,298.369,186.345,320.4,159.322,320.387z M205.575,271.232c-0.191-26.029-20.944-46.172-47.368-45.977
		c-24.503,0.182-44.999,21.111-45.108,46.063c-0.11,25.213,21.008,46.311,46.31,46.267
		C184.798,317.541,205.761,296.495,205.575,271.232z"/>
	<path fill-rule="evenodd" clip-rule="evenodd" d="M399.358,271.243c0.05,27.019-21.885,49.089-48.887,49.139
		c-26.094,0.046-49.276-20.199-49.235-49.081c0.039-27.613,21.307-48.946,49.009-48.963
		C379.126,222.321,399.177,245.314,399.358,271.243z M350.299,225.264c-25.601,0.014-46.241,20.644-46.19,46.167
		c0.051,25.34,20.592,45.942,46.015,46.154c25.174,0.21,46.623-20.775,46.392-46.14
		C396.262,243.838,374.183,225.104,350.299,225.264z"/>
	<path fill-rule="evenodd" clip-rule="evenodd" d="M242.904,56.554c0,5.389,0,10.46,0,15.823c-5.406,0-10.732,0-16.343,0
		c0-5.16,0-10.376,0-15.823C231.905,56.554,237.239,56.554,242.904,56.554z"/>
	<path fill-rule="evenodd" clip-rule="evenodd" d="M267.263,141.463c0-5.374,0-10.532,0-15.935c5.422,0,10.765,0,16.33,0
		c0,5.303,0,10.527,0,15.935C278.198,141.463,272.939,141.463,267.263,141.463z"/>
	<path fill-rule="evenodd" clip-rule="evenodd" d="M168.534,247.186c0,3.104,0.052,5.968-0.016,8.829
		c-0.054,2.304,0.95,3.256,3.26,3.187c3.371-0.101,6.747-0.025,10.333-0.025c0,6.633,0,12.95,0,19.814
		c-3.36,0-6.815,0.154-10.25-0.052c-2.437-0.146-3.235,0.774-3.157,3.079c0.104,3.059,0.025,6.125,0.025,9.414
		c-6.104,0-11.976,0-18.249,0c0-2.922-0.132-5.863,0.04-8.787c0.151-2.574-1.012-3.404-3.374-3.355
		c-3.274,0.066-6.55,0.016-10.086,0.016c0-6.58,0-12.98,0-19.768c3.478,0,6.953-0.172,10.4,0.059
		c2.365,0.157,3.028-0.797,2.986-2.904c-0.06-3.072-0.015-6.146-0.015-9.505C156.506,247.186,162.442,247.186,168.534,247.186z"/>
	<path fill-rule="evenodd" clip-rule="evenodd" d="M356.575,292.013c-0.015,5.071-4.064,9.185-9.019,9.161
		c-4.952-0.024-9.043-4.195-9.032-9.207c0.011-5.035,4.08-9.117,9.082-9.111C352.638,282.861,356.59,286.897,356.575,292.013z"/>
	<path fill-rule="evenodd" clip-rule="evenodd" d="M377.965,263.734c4.904,0.09,9.089,4.428,8.976,9.303
		c-0.113,4.799-4.612,9.138-9.336,9c-4.937-0.145-9.055-4.441-8.953-9.342C368.753,267.77,373.043,263.643,377.965,263.734z"/>
	<path fill-rule="evenodd" clip-rule="evenodd" d="M355.712,238.676c5.048,0.016,9.123,4.088,9.081,9.075
		c-0.041,4.966-4.182,9.011-9.21,8.995c-5.003-0.014-9.173-4.176-9.13-9.114C346.496,242.647,350.617,238.661,355.712,238.676z"/>
	<path fill-rule="evenodd" clip-rule="evenodd" d="M325.497,275.869c-5.032,0.035-9.16-3.984-9.207-8.963
		c-0.046-4.986,4.003-9.061,9.036-9.093c5.179-0.033,9.101,3.802,9.133,8.928C334.49,271.891,330.619,275.832,325.497,275.869z"/>
</g>
</svg>
