<?xml version="1.0" standalone="no"?>
<!DOCTYPE svg PUBLIC "-//W3C//DTD SVG 20010904//EN"
 "http://www.w3.org/TR/2001/REC-SVG-20010904/DTD/svg10.dtd">
<svg version="1.0" xmlns="http://www.w3.org/2000/svg"
 width="2002.000000pt" height="1652.000000pt" viewBox="0 0 2002.000000 1652.000000"
 preserveAspectRatio="xMidYMid meet">

<g transform="translate(0.000000,1652.000000) scale(0.100000,-0.100000)"
fill="#000000" stroke="none">
<path d="M8740 16180 l0 -330 340 0 340 0 0 330 0 330 -340 0 -340 0 0 -330z"/>
<path d="M10350 15656 l0 -335 -26 -20 c-26 -20 -38 -21 -380 -21 l-354 0 0
-585 0 -585 353 2 352 3 2 209 c0 115 4 222 7 238 11 54 34 57 406 54 187 -1
347 2 363 7 15 5 33 19 39 31 9 16 12 180 10 661 -2 352 -5 648 -8 658 -5 16
-32 17 -385 17 l-379 0 0 -334z"/>
<path d="M8730 12665 l0 -1015 660 0 660 0 0 340 0 339 -290 3 c-262 3 -291 5
-307 21 -17 17 -18 61 -23 670 l-5 652 -347 3 -348 2 0 -1015z"/>
<path d="M11830 12098 l0 -1555 58 -6 c31 -3 559 -3 1172 2 871 6 1134 4 1200
-5 320 -47 709 -180 994 -340 448 -251 855 -644 1120 -1083 225 -370 363 -794
407 -1247 17 -174 6 -565 -20 -734 -82 -532 -294 -1016 -622 -1425 -108 -133
-338 -364 -469 -469 -204 -163 -488 -332 -735 -436 -502 -213 -1093 -281
-1635 -190 -518 88 -1040 329 -1435 664 -33 28 -68 57 -77 65 -17 13 -18 -17
-18 -593 l0 -606 3980 0 3981 0 48 25 48 24 46 138 c52 156 88 294 113 433 25
136 25 423 1 545 -83 408 -288 709 -652 956 -44 30 -179 104 -299 164 -145 73
-226 119 -239 137 -29 39 -31 109 -8 238 80 445 91 892 35 1335 -145 1137
-730 1812 -1808 2086 -229 58 -473 91 -791 108 -234 12 -269 36 -346 230 -249
629 -695 1027 -1339 1195 -301 79 -532 102 -905 91 -442 -13 -425 -14 -446 15
-12 15 -33 92 -54 190 -115 538 -208 812 -350 1031 -212 329 -542 544 -867
566 l-88 6 0 -1555z"/>
<path d="M10430 13310 l0 -330 340 0 340 0 0 330 0 330 -340 0 -340 0 0 -330z"/>
<path d="M7502 12975 c-103 -18 -210 -54 -305 -101 -251 -126 -421 -342 -532
-674 -39 -117 -60 -152 -107 -176 -18 -9 -126 -27 -272 -44 -276 -33 -480 -63
-612 -90 -983 -202 -1738 -706 -2289 -1530 -128 -192 -195 -308 -301 -524
-143 -289 -279 -656 -375 -1008 -46 -169 -55 -192 -94 -228 -26 -24 -31 -25
-223 -31 -274 -9 -416 -40 -592 -129 -203 -102 -356 -258 -467 -476 -64 -124
-105 -239 -149 -419 -65 -266 -67 -271 -205 -432 -417 -488 -681 -961 -835
-1498 -127 -438 -163 -925 -107 -1412 l6 -53 4028 0 4029 0 0 590 c0 325 -2
590 -5 590 -3 0 -41 -28 -83 -63 -442 -360 -928 -577 -1482 -664 -93 -15 -174
-18 -430 -18 -360 1 -480 14 -754 85 -1071 274 -1909 1111 -2167 2165 -62 255
-73 366 -73 735 0 370 11 485 75 750 185 774 668 1399 1439 1862 281 169 541
274 808 328 209 42 625 48 1910 29 544 -7 717 -7 728 2 12 10 14 187 14 1188
0 1350 11 1213 -101 1238 -96 21 -376 26 -477 8z"/>
<path d="M10450 10890 c0 -731 2 -708 -63 -734 -47 -19 -883 -15 -913 4 -47
30 -49 39 -45 303 l3 247 -351 0 -351 0 0 -647 c0 -357 -3 -1942 -6 -3523 -7
-3146 -2 -2913 -66 -2946 -29 -15 -120 -18 -873 -26 -462 -4 -906 -12 -986
-17 -132 -7 -151 -11 -192 -34 -89 -52 -123 -119 -114 -221 8 -101 40 -170
116 -246 36 -38 419 -405 851 -816 432 -412 1093 -1043 1469 -1404 775 -742
795 -760 859 -791 71 -35 178 -33 254 4 111 54 32 -19 1863 1731 1412 1351
1399 1338 1425 1398 28 66 29 160 1 249 -22 69 -46 100 -96 120 -34 14 -43 14
-1232 29 -558 7 -821 14 -837 22 -14 6 -29 18 -33 27 -4 9 -9 1797 -11 3974
l-2 3957 -335 0 -335 0 0 -660z"/>
<path d="M5795 9603 c-720 -48 -1354 -464 -1672 -1098 -133 -264 -203 -522
-222 -818 -61 -925 516 -1771 1408 -2063 540 -178 1137 -117 1642 168 550 310
923 858 1015 1488 21 145 15 486 -11 625 -39 212 -92 376 -181 563 -273 572
-786 970 -1415 1096 -189 38 -380 51 -564 39z m260 -123 c889 -67 1591 -673
1770 -1530 33 -157 45 -450 25 -618 -93 -787 -698 -1459 -1477 -1642 -774
-182 -1583 142 -2035 814 -309 460 -402 1005 -263 1541 116 445 414 862 800
1120 304 203 634 309 1005 324 19 0 98 -4 175 -9z"/>
<path d="M5570 8356 c0 -224 -7 -268 -43 -288 -14 -7 -101 -10 -269 -9 l-248
2 0 -415 0 -416 251 0 251 0 29 -29 29 -29 0 -221 0 -221 380 0 380 0 0 231 0
231 30 30 31 30 132 -2 c73 -2 185 -2 250 -2 l117 2 0 410 0 409 -255 3 -255
3 -27 28 -28 27 -3 220 -3 220 -375 0 -374 0 0 -214z"/>
<path d="M13696 9599 c-1070 -102 -1848 -963 -1846 -2041 2 -472 163 -932 451
-1284 329 -403 780 -651 1334 -736 117 -17 428 -14 555 6 674 106 1238 518
1535 1121 98 201 154 378 191 610 24 146 23 428 0 579 -144 920 -822 1604
-1717 1731 -136 19 -379 26 -503 14z m486 -134 c360 -52 709 -214 995 -464
300 -263 525 -656 602 -1053 123 -638 -51 -1244 -489 -1701 -173 -181 -343
-307 -553 -410 -930 -458 -2053 -90 -2546 834 -68 128 -127 280 -161 418 -203
812 125 1642 828 2095 99 64 316 168 431 205 272 90 597 118 893 76z"/>
<path d="M14040 8919 c-109 -21 -222 -108 -267 -205 -68 -150 -45 -300 66
-417 93 -99 221 -140 351 -113 90 19 143 50 208 121 80 87 114 203 92 311 -33
161 -148 273 -310 304 -60 11 -77 11 -140 -1z"/>
<path d="M12767 8120 c-107 -27 -204 -106 -253 -206 -26 -53 -29 -69 -29 -159
0 -88 3 -107 27 -157 81 -174 277 -257 469 -198 64 19 81 29 139 88 81 81 110
152 110 267 0 208 -145 359 -355 371 -38 2 -87 -1 -108 -6z"/>
<path d="M14933 7866 c-199 -65 -318 -281 -258 -467 37 -115 103 -190 215
-243 57 -27 75 -31 150 -31 75 1 93 5 151 33 169 81 262 272 214 438 -32 113
-110 204 -214 252 -68 31 -191 40 -258 18z"/>
<path d="M13710 7079 c-110 -22 -216 -103 -264 -202 -78 -158 -45 -331 84
-450 77 -71 148 -100 250 -100 102 0 172 28 250 100 79 73 112 141 118 247 3
43 -1 102 -7 131 -16 69 -76 162 -132 203 -83 61 -206 91 -299 71z"/>
</g>
</svg>
